#!OML:ASF F:\VICON\USERDATA\INSTALL\rory3\rory3.ASF
:FULLY-SPECIFIED
:DEGREES
1
root 0.891195999999999 17.614 -27.75390000000001 -2.5571199999999994 2.47808 2.7007299999999934
lfemur 18.614199999999965 -5.087229999999995 -27.7187
ltibia 16.862499999999994
lfoot -13.17700000000001 -5.263040000000007
ltoes -9.932010000000004
rfemur -28.62989999999998 5.4299399999999975 18.51680000000001
rtibia 22.819499999999994
rfoot -8.44017 -12.09479999999999
rtoes -0.03645979999999538
lowerback nan -2.062110000000001 -5.642150000000008
upperback 0.407811 -3.2523099999999983 1.71921
thorax -4.31956 -1.4846800000000027 5.385549999999997
lowerneck -17.0075 -2.2214500000000013 -1.99563
upperneck 21.1725 -2.4885499999999974 -0.2880920000000019
head 9.52292 -1.3565599999999993 -0.09426169999999945
lclavicle 1.1852499999999983e-14 -8.746530000000016e-15
lhumerus -23.18929999999999 -0.9676609999999952 81.1787
lradius 30.576700000000002
lwrist 6.029989999999998
lhand -32.670500000000004 25.678000000000004
lfingers nan
lthumb -5.89609999999999 55.57600000000001
rclavicle 1.1852499999999983e-14 -8.746530000000016e-15
rhumerus -32.9566 -19.2232 -77.3112
rradius 25.2239
rwrist 5.408489999999999
rhand -17.4642 nan
rfingers nan
rthumb 8.78745 -7.220799999999999
2
root 0.8420579999999993 17.709 -26.894000000000005 -2.7782 2.0583700000000076 0.1807189999999954
lfemur 16.977700000000052 -6.267430000000006 -25.314499999999995
ltibia 24.83490000000001
lfoot -9.31987 -7.818309999999999
ltoes -16.357000000000006
rfemur -27.151199999999964 5.980799999999997 21.579300000000007
rtibia 24.467300000000016
rfoot -5.496889999999995 -9.607480000000006
rtoes 1.3429300000000022
lowerback nan -1.9730399999999966 -2.8800799999999906
upperback 0.24781700000000004 -2.8099800000000017 2.444360000000002
thorax -4.64566 -1.3025900000000004 4.540199999999999
lowerneck -17.0277 -2.7213000000000003 -2.4125900000000007
upperneck 22.2158 -3.043969999999999 -0.4152029999999979
head 9.906869999999998 -1.66701 -0.15279199999999984
lclavicle -5.541119999999999e-15 3.1805499999999952e-15
lhumerus -24.059199999999993 -0.4619600000000008 82.036
lradius 30.610600000000005
lwrist 6.360519999999996
lhand -32.811800000000005 24.7758
lfingers nan
lthumb -6.032560000000003 54.6699
rclavicle -5.541119999999999e-15 3.1805499999999952e-15
rhumerus -33.70949999999999 -21.846700000000006 -75.2758
rradius 23.431
rwrist 7.533609999999999
rhand -17.0494 nan
rfingers nan
rthumb 9.18764 -6.2999199999999975
3
root 0.8092850000000009 17.7729 -26.04830000000002 -2.9170100000000008 1.123410000000002 -0.35078500000000146
lfemur 14.04659999999999 -4.885020000000004 -24.106099999999998
ltibia 33.6903
lfoot 1.6518200000000105 -11.816500000000005
ltoes -12.4718
rfemur -25.853500000000015 4.3672 23.030599999999996
rtibia 27.43199999999998
rfoot -4.474250000000003 -5.8715399999999995
rtoes 3.8255899999999996
lowerback nan -1.9476800000000063 -2.213179999999994
upperback -0.18714899999999962 -2.6844199999999963 2.800810000000002
thorax -5.09037 -1.2346400000000002 4.534900000000004
lowerneck -15.832900000000002 -2.42257 -2.8314000000000012
upperneck 21.960499999999996 -2.543980000000002 -0.45426999999999895
head 9.59452 -1.4774500000000004 -0.012167900000000065
lclavicle 1.3355800000000008e-14 -9.541660000000021e-15
lhumerus -26.762200000000004 1.9633599999999984 82.3154
lradius 30.43020000000001
lwrist 5.882030000000002
lhand -32.79580000000001 18.140800000000006
lfingers nan
lthumb -6.01705 48.0353
rclavicle 1.3355800000000008e-14 -9.541660000000021e-15
rhumerus -34.79540000000001 -23.5368 -73.0583
rradius 21.791500000000003
rwrist 10.164899999999992
rhand -16.729 nan
rfingers nan
rthumb 9.49678 -6.581690000000002
4
root 0.7409510000000001 17.8778 -25.247200000000035 -3.351119999999998 1.0382500000000032 -1.2012300000000007
lfemur 9.044689999999978 -3.0749600000000004 -21.839599999999997
ltibia 43.48849999999998
lfoot 11.524599999999985 -14.265700000000004
ltoes 9.64318000000002
rfemur -23.457299999999986 3.0630400000000026 24.8109
rtibia 29.164899999999996
rfoot -5.305670000000003 -3.493559999999994
rtoes 4.49366
lowerback nan -1.7064599999999976 -1.2991299999999997
upperback 0.0761157000000004 -2.25985 2.9259400000000024
thorax -5.1466 -1.0478999999999983 4.107389999999996
lowerneck -16.3689 -2.5806999999999998 -2.531179999999999
upperneck 21.5692 -2.846930000000001 -0.36155300000000234
head 9.5559 -1.5785799999999997 -0.07302660000000022
lclavicle 6.994740000000012e-15 -3.1805500000000016e-15
lhumerus -27.7253 1.1998099999999994 83.0435
lradius 30.9528
lwrist 6.896279999999997
lhand -31.276299999999992 20.263199999999998
lfingers nan
lthumb -4.549910000000002 50.194399999999995
rclavicle 6.994740000000012e-15 -3.1805500000000016e-15
rhumerus -34.790499999999994 -24.490999999999993 -72.66829999999999
rradius 21.670100000000005
rwrist 10.20899999999999
rhand -16.5 nan
rfingers nan
rthumb 9.717730000000001 -7.23937
